<svg xmlns="http://www.w3.org/2000/svg" xmlns:xlink="http://www.w3.org/1999/xlink" width="851" zoomAndPan="magnify" viewBox="0 0 638.25 236.249991" height="315" preserveAspectRatio="xMidYMid meet" version="1.0"><defs><g/><clipPath id="d1be48f577"><path d="M 144 35 L 217 35 L 217 202.382812 L 144 202.382812 Z M 144 35 " clip-rule="nonzero"/></clipPath><clipPath id="e3a2a5fbea"><path d="M 4.769531 5.589844 L 59.585938 5.589844 L 59.585938 227.632812 L 4.769531 227.632812 Z M 4.769531 5.589844 " clip-rule="nonzero"/></clipPath><clipPath id="ab41158edc"><path d="M 574.589844 5.914062 L 629.40625 5.914062 L 629.40625 227.960938 L 574.589844 227.960938 Z M 574.589844 5.914062 " clip-rule="nonzero"/></clipPath></defs><path fill="#ffffff" d="M 120.789062 178.324219 C 117.222656 178.324219 114.847656 177.136719 112.472656 174.761719 L 64.964844 127.25 C 60.210938 122.5 60.210938 115.375 64.964844 110.621094 L 112.472656 63.113281 C 117.222656 58.363281 124.351562 58.363281 129.101562 63.113281 C 133.851562 67.863281 133.851562 74.992188 129.101562 79.742188 L 89.90625 118.9375 L 129.101562 158.132812 C 133.851562 162.882812 133.851562 170.011719 129.101562 174.761719 C 126.726562 177.136719 124.351562 178.324219 120.789062 178.324219 Z M 120.789062 178.324219 " fill-opacity="1" fill-rule="nonzero"/><path fill="#ffffff" d="M 239.5625 178.324219 C 236 178.324219 233.625 177.136719 231.246094 174.761719 C 226.496094 170.011719 226.496094 162.882812 231.246094 158.132812 L 270.441406 118.9375 L 231.246094 79.742188 C 226.496094 74.992188 226.496094 67.863281 231.246094 63.113281 C 236 58.363281 243.125 58.363281 247.875 63.113281 L 295.386719 110.621094 C 300.136719 115.375 300.136719 122.5 295.386719 127.25 L 247.875 174.761719 C 245.5 177.136719 243.125 178.324219 239.5625 178.324219 Z M 239.5625 178.324219 " fill-opacity="1" fill-rule="nonzero"/><g clip-path="url(#d1be48f577)"><path fill="#ffffff" d="M 156.417969 202.078125 C 155.230469 202.078125 154.042969 202.078125 152.855469 200.890625 C 146.917969 198.515625 143.355469 192.578125 145.730469 185.449219 L 193.238281 42.921875 C 195.617188 36.984375 201.554688 33.417969 208.679688 35.792969 C 214.621094 38.171875 218.183594 44.109375 215.808594 51.234375 L 168.296875 193.765625 C 165.921875 198.515625 161.171875 202.078125 156.417969 202.078125 Z M 156.417969 202.078125 " fill-opacity="1" fill-rule="nonzero"/></g><g clip-path="url(#e3a2a5fbea)"><path fill="#319a8f" d="M 54.847656 227.953125 L 51.671875 227.953125 C 36.328125 227.953125 23.847656 215.472656 23.847656 200.128906 L 23.847656 141.523438 C 23.847656 134.78125 20.222656 128.484375 14.394531 125.09375 L 7.125 120.867188 C 5.667969 120.019531 4.769531 118.457031 4.769531 116.769531 C 4.769531 115.082031 5.667969 113.523438 7.125 112.675781 L 14.394531 108.449219 C 20.222656 105.058594 23.847656 98.761719 23.847656 92.019531 L 23.847656 33.410156 C 23.847656 18.070312 36.328125 5.585938 51.671875 5.585938 L 54.847656 5.585938 C 57.464844 5.585938 59.585938 7.707031 59.585938 10.324219 C 59.585938 12.941406 57.464844 15.0625 54.847656 15.0625 L 51.671875 15.0625 C 41.554688 15.0625 33.320312 23.292969 33.320312 33.410156 L 33.320312 92.019531 C 33.320312 102.125 27.894531 111.558594 19.15625 116.640625 L 18.929688 116.769531 L 19.15625 116.902344 C 27.894531 121.984375 33.320312 131.417969 33.320312 141.523438 L 33.320312 200.128906 C 33.320312 210.25 41.554688 218.480469 51.671875 218.480469 L 54.847656 218.480469 C 57.464844 218.480469 59.585938 220.601562 59.585938 223.21875 C 59.585938 225.832031 57.464844 227.953125 54.847656 227.953125 " fill-opacity="1" fill-rule="nonzero"/></g><g fill="#319a8f" fill-opacity="1"><g transform="translate(312.10273, 141.447476)"><g><path d="M 5.953125 -50.1875 L 17.5625 -50.1875 L 17.5625 0 L 5.953125 0 Z M 5.953125 -50.1875 "/></g></g></g><g fill="#319a8f" fill-opacity="1"><g transform="translate(335.613346, 141.447476)"><g><path d="M 28.609375 -39.140625 C 33.378906 -39.140625 37.234375 -37.703125 40.171875 -34.828125 C 43.117188 -31.960938 44.59375 -27.710938 44.59375 -22.078125 L 44.59375 0 L 33.40625 0 L 33.40625 -20.359375 C 33.40625 -23.421875 32.734375 -25.703125 31.390625 -27.203125 C 30.054688 -28.710938 28.125 -29.46875 25.59375 -29.46875 C 22.769531 -29.46875 20.519531 -28.59375 18.84375 -26.84375 C 17.175781 -25.101562 16.34375 -22.507812 16.34375 -19.0625 L 16.34375 0 L 5.15625 0 L 5.15625 -38.5625 L 15.84375 -38.5625 L 15.84375 -34.046875 C 17.320312 -35.671875 19.160156 -36.925781 21.359375 -37.8125 C 23.554688 -38.695312 25.972656 -39.140625 28.609375 -39.140625 Z M 28.609375 -39.140625 "/></g></g></g><g fill="#319a8f" fill-opacity="1"><g transform="translate(385.143341, 141.447476)"><g><path d="M 29.96875 0.859375 C 24.851562 0.859375 20.226562 -0.25 16.09375 -2.46875 C 11.957031 -4.695312 8.707031 -7.78125 6.34375 -11.71875 C 3.976562 -15.664062 2.796875 -20.125 2.796875 -25.09375 C 2.796875 -30.0625 3.976562 -34.515625 6.34375 -38.453125 C 8.707031 -42.398438 11.957031 -45.484375 16.09375 -47.703125 C 20.226562 -49.929688 24.875 -51.046875 30.03125 -51.046875 C 34.382812 -51.046875 38.316406 -50.28125 41.828125 -48.75 C 45.335938 -47.21875 48.289062 -45.019531 50.6875 -42.15625 L 43.234375 -35.265625 C 39.835938 -39.191406 35.628906 -41.15625 30.609375 -41.15625 C 27.503906 -41.15625 24.734375 -40.472656 22.296875 -39.109375 C 19.859375 -37.742188 17.957031 -35.84375 16.59375 -33.40625 C 15.226562 -30.96875 14.546875 -28.195312 14.546875 -25.09375 C 14.546875 -21.988281 15.226562 -19.21875 16.59375 -16.78125 C 17.957031 -14.34375 19.859375 -12.441406 22.296875 -11.078125 C 24.734375 -9.710938 27.503906 -9.03125 30.609375 -9.03125 C 35.628906 -9.03125 39.835938 -11.015625 43.234375 -14.984375 L 50.6875 -8.09375 C 48.289062 -5.1875 45.320312 -2.96875 41.78125 -1.4375 C 38.25 0.09375 34.3125 0.859375 29.96875 0.859375 Z M 29.96875 0.859375 "/></g></g></g><g fill="#319a8f" fill-opacity="1"><g transform="translate(437.68384, 141.447476)"><g><path d="M 23.515625 0.578125 C 19.453125 0.578125 15.804688 -0.269531 12.578125 -1.96875 C 9.359375 -3.664062 6.835938 -6.019531 5.015625 -9.03125 C 3.203125 -12.039062 2.296875 -15.457031 2.296875 -19.28125 C 2.296875 -23.101562 3.203125 -26.519531 5.015625 -29.53125 C 6.835938 -32.539062 9.359375 -34.894531 12.578125 -36.59375 C 15.804688 -38.289062 19.453125 -39.140625 23.515625 -39.140625 C 27.578125 -39.140625 31.207031 -38.289062 34.40625 -36.59375 C 37.613281 -34.894531 40.125 -32.539062 41.9375 -29.53125 C 43.75 -26.519531 44.65625 -23.101562 44.65625 -19.28125 C 44.65625 -15.457031 43.75 -12.039062 41.9375 -9.03125 C 40.125 -6.019531 37.613281 -3.664062 34.40625 -1.96875 C 31.207031 -0.269531 27.578125 0.578125 23.515625 0.578125 Z M 23.515625 -8.609375 C 26.378906 -8.609375 28.726562 -9.570312 30.5625 -11.5 C 32.40625 -13.4375 33.328125 -16.03125 33.328125 -19.28125 C 33.328125 -22.53125 32.40625 -25.125 30.5625 -27.0625 C 28.726562 -29 26.378906 -29.96875 23.515625 -29.96875 C 20.648438 -29.96875 18.285156 -29 16.421875 -27.0625 C 14.554688 -25.125 13.625 -22.53125 13.625 -19.28125 C 13.625 -16.03125 14.554688 -13.4375 16.421875 -11.5 C 18.285156 -9.570312 20.648438 -8.609375 23.515625 -8.609375 Z M 23.515625 -8.609375 "/></g></g></g><g fill="#319a8f" fill-opacity="1"><g transform="translate(484.633395, 141.447476)"><g><path d="M 44.453125 -53.1875 L 44.453125 0 L 33.765625 0 L 33.765625 -4.4375 C 30.992188 -1.09375 26.976562 0.578125 21.71875 0.578125 C 18.082031 0.578125 14.796875 -0.234375 11.859375 -1.859375 C 8.921875 -3.484375 6.613281 -5.800781 4.9375 -8.8125 C 3.269531 -11.820312 2.4375 -15.3125 2.4375 -19.28125 C 2.4375 -23.25 3.269531 -26.738281 4.9375 -29.75 C 6.613281 -32.757812 8.921875 -35.078125 11.859375 -36.703125 C 14.796875 -38.328125 18.082031 -39.140625 21.71875 -39.140625 C 26.644531 -39.140625 30.492188 -37.585938 33.265625 -34.484375 L 33.265625 -53.1875 Z M 23.65625 -8.609375 C 26.476562 -8.609375 28.820312 -9.570312 30.6875 -11.5 C 32.550781 -13.4375 33.484375 -16.03125 33.484375 -19.28125 C 33.484375 -22.53125 32.550781 -25.125 30.6875 -27.0625 C 28.820312 -29 26.476562 -29.96875 23.65625 -29.96875 C 20.789062 -29.96875 18.425781 -29 16.5625 -27.0625 C 14.695312 -25.125 13.765625 -22.53125 13.765625 -19.28125 C 13.765625 -16.03125 14.695312 -13.4375 16.5625 -11.5 C 18.425781 -9.570312 20.789062 -8.609375 23.65625 -8.609375 Z M 23.65625 -8.609375 "/></g></g></g><g fill="#319a8f" fill-opacity="1"><g transform="translate(534.235055, 141.447476)"><g><path d="M 42.9375 -19.140625 C 42.9375 -18.992188 42.863281 -17.988281 42.71875 -16.125 L 13.546875 -16.125 C 14.078125 -13.738281 15.320312 -11.851562 17.28125 -10.46875 C 19.238281 -9.082031 21.675781 -8.390625 24.59375 -8.390625 C 26.59375 -8.390625 28.367188 -8.6875 29.921875 -9.28125 C 31.484375 -9.875 32.929688 -10.816406 34.265625 -12.109375 L 40.21875 -5.65625 C 36.582031 -1.5 31.273438 0.578125 24.296875 0.578125 C 19.953125 0.578125 16.109375 -0.269531 12.765625 -1.96875 C 9.421875 -3.664062 6.835938 -6.019531 5.015625 -9.03125 C 3.203125 -12.039062 2.296875 -15.457031 2.296875 -19.28125 C 2.296875 -23.0625 3.191406 -26.46875 4.984375 -29.5 C 6.773438 -32.53125 9.234375 -34.894531 12.359375 -36.59375 C 15.492188 -38.289062 19 -39.140625 22.875 -39.140625 C 26.644531 -39.140625 30.054688 -38.328125 33.109375 -36.703125 C 36.171875 -35.078125 38.570312 -32.742188 40.3125 -29.703125 C 42.0625 -26.671875 42.9375 -23.148438 42.9375 -19.140625 Z M 22.9375 -30.6875 C 20.40625 -30.6875 18.28125 -29.96875 16.5625 -28.53125 C 14.84375 -27.09375 13.789062 -25.132812 13.40625 -22.65625 L 32.40625 -22.65625 C 32.019531 -25.09375 30.96875 -27.039062 29.25 -28.5 C 27.53125 -29.957031 25.425781 -30.6875 22.9375 -30.6875 Z M 22.9375 -30.6875 "/></g></g></g><g clip-path="url(#ab41158edc)"><path fill="#319a8f" d="M 579.328125 5.59375 L 582.503906 5.59375 C 597.847656 5.59375 610.332031 18.074219 610.332031 33.417969 L 610.332031 92.023438 C 610.332031 98.769531 613.953125 105.066406 619.78125 108.453125 L 627.050781 112.683594 C 628.511719 113.53125 629.40625 115.089844 629.40625 116.777344 C 629.40625 118.464844 628.511719 120.023438 627.050781 120.871094 L 619.78125 125.101562 C 613.953125 128.492188 610.332031 134.785156 610.332031 141.53125 L 610.332031 200.136719 C 610.332031 215.480469 597.847656 227.960938 582.503906 227.960938 L 579.328125 227.960938 C 576.710938 227.960938 574.589844 225.839844 574.589844 223.222656 C 574.589844 220.609375 576.710938 218.484375 579.328125 218.484375 L 582.503906 218.484375 C 592.625 218.484375 600.855469 210.253906 600.855469 200.136719 L 600.855469 141.53125 C 600.855469 131.425781 606.28125 121.988281 615.019531 116.910156 L 615.246094 116.777344 L 615.019531 116.644531 C 606.28125 111.566406 600.855469 102.132812 600.855469 92.023438 L 600.855469 33.417969 C 600.855469 23.300781 592.625 15.070312 582.503906 15.070312 L 579.328125 15.070312 C 576.710938 15.070312 574.589844 12.949219 574.589844 10.332031 C 574.589844 7.714844 576.710938 5.59375 579.328125 5.59375 " fill-opacity="1" fill-rule="nonzero"/></g></svg>